# xmcd
#
# Track frame offsets: 
#        150
#        7422
#        15270
#        22963
#        30800
#        39368
#        47490
#        55169
#        62062
#        70062
#        78004
#        85923
#        96145
#        103635
#        112160
#        120008
#        127997
#        137105
#        145023
#        152837
#        160632
#        168569
#        179879
#        187526
#        195696
#        204695
#        214200
#        222199
#        232882
#        239527
#        246326
#        253638
#        260348
#
# Disc length: 3582 seconds
#
# Revision: 6
# Processed by: cddbd v1.5.2PL0 Copyright (c) Steve Scherf et al.
# Submitted via: ExactAudioCopy v0.99pb4
#
DISCID=b70dfc21
DTITLE=Ben Liebrand - Grandmix 2007
DYEAR=2007
DGENRE=Dance
TTITLE0=Intro Grandmix 2007
TTITLE1=Samim - Heater
TTITLE2=JayMen - Ooh La Lishious
TTITLE3=Peter Gelderblom - Waiting 4
TTITLE4=Eric Prydz vs Floyd - Proper Education
TTITLE5=Jes - Ghost
TTITLE6=Sander van Doorn ft. MC Pryme - By Any Demand
TTITLE7=Booty Luv - Shine
TTITLE8=King Amir - Samir's Theme
TTITLE9=Ricky L ft. M:ck - Born Again
TTITLE10=Chris Lake ft. Emma Hewitt - Carry Me Away
TTITLE11=Chris Lake ft. Laura V - Changes
TTITLE12=DJ Tilo - Mr Perfect
TTITLE13=Se:Sa ft. Sharon Phillips - Like This Like That
TTITLE14=Velvet - Fix Me
TTITLE15=Ben Macklin ft. Tiger Lily - Feel Together
TTITLE16=Funkerman and Fedde Le Grand Pres. 'F To The F' - Wheels In Mot
TTITLE16=ion
TTITLE17=Funkerman - Speed Up
TTITLE18=Booty Luv - Boogie 2Nite
TTITLE19=Cerf, Mitiska and Jaren - Light The Skies (Retrobyte Classic El
TTITLE19=ectrobounce Mix)
TTITLE20=Out Of Office - Hands Up
TTITLE21=Dr. Kucho! and Gregor Salto - Love Is My Game
TTITLE22=Dr. Kucho! Ft. Andy Sherman - Lies To Yourself
TTITLE23=Sandy Rivera and Haze - Freak
TTITLE24=Syke 'n' Sugarstarr - Danz
TTITLE25=Freemasons ft. Bailey Tzuke - Uninvited
TTITLE26=Wi-Fi ft. Melanie M - Be Without You
TTITLE27=Alex Gaudino ft. Crystal Waters - Destination Calabria
TTITLE28=Didier Sinclair ft. Lidy V - Feel The Wave
TTITLE29=Bob Sinclar and Cutee B ft. Gary Pine and Dollarman - Sound Of Fr
TTITLE29=eedom
TTITLE30=Yves Larock - Rise Up
TTITLE31=Masters At Work - Work 2007
TTITLE32=Delano and Crockett - Missing
EXTD=YEAR: 2008
EXTT0=
EXTT1=
EXTT2=
EXTT3=
EXTT4=
EXTT5=
EXTT6=
EXTT7=
EXTT8=
EXTT9=
EXTT10=
EXTT11=
EXTT12=
EXTT13=
EXTT14=
EXTT15=
EXTT16=
EXTT17=
EXTT18=
EXTT19=
EXTT20=
EXTT21=
EXTT22=
EXTT23=
EXTT24=
EXTT25=
EXTT26=
EXTT27=
EXTT28=
EXTT29=
EXTT30=
EXTT31=
EXTT32=
PLAYORDER=
